<?xml version="1.0" standalone="no"?>
<!DOCTYPE svg PUBLIC "-//W3C//DTD SVG 20010904//EN"
 "http://www.w3.org/TR/2001/REC-SVG-20010904/DTD/svg10.dtd">
<svg version="1.0" xmlns="http://www.w3.org/2000/svg"
 width="200.000000pt" height="200.000000pt" viewBox="0 0 200.000000 200.000000"
 preserveAspectRatio="xMidYMid meet">
<metadata>
Created by potrace 1.11, written by Peter Selinger 2001-2013
</metadata>
<g transform="translate(0.000000,200.000000) scale(0.100000,-0.100000)"
fill="#000000" stroke="none">
<path d="M1221 1527 c-19 -9 -29 -28 -42 -77 -105 -397 -132 -501 -140 -535
-5 -22 -17 -71 -27 -109 -18 -66 -19 -67 -30 -40 -19 52 -54 149 -57 159 -1 6
-5 17 -8 25 -3 8 -18 51 -33 95 -70 205 -81 230 -108 245 -51 29 -69 6 -165
-210 l-86 -195 -249 -5 c-230 -5 -249 -6 -262 -24 -19 -27 -18 -52 6 -76 19
-19 33 -20 293 -20 256 0 275 1 291 19 10 10 42 75 72 142 31 68 59 127 63
132 6 6 96 -240 186 -508 15 -45 27 -63 48 -73 32 -16 63 -8 77 18 8 15 93
323 115 420 17 71 84 313 89 317 3 3 8 -8 12 -23 27 -119 117 -410 130 -425
16 -18 37 -19 291 -19 260 0 274 1 293 20 11 11 20 29 20 40 0 11 -9 29 -20
40 -19 19 -33 20 -254 20 -144 0 -237 4 -241 10 -6 10 -61 199 -96 330 -11 41
-27 94 -34 117 -8 24 -17 55 -20 70 -10 52 -33 107 -51 120 -22 16 -32 16 -63
0z"/>
</g>
</svg>
